<?xml version="1.0" standalone="no"?>
<!DOCTYPE svg PUBLIC "-//W3C//DTD SVG 20010904//EN"
 "http://www.w3.org/TR/2001/REC-SVG-20010904/DTD/svg10.dtd">
<svg version="1.0" xmlns="http://www.w3.org/2000/svg"
 width="70.000000pt" height="70.000000pt" viewBox="0 0 70.000000 70.000000"
 preserveAspectRatio="xMidYMid meet">
<metadata>
Created by potrace 1.14, written by Peter Selinger 2001-2017
</metadata>
<g transform="translate(0.000000,70.000000) scale(0.100000,-0.100000)"
fill="#000000" stroke="none">
<path d="M290 669 c-41 -24 -104 -89 -145 -150 -17 -24 -33 -45 -37 -47 -5 -2
-8 -12 -8 -22 0 -10 -5 -22 -11 -26 -6 -3 -9 -15 -6 -25 3 -11 2 -19 -3 -19
-11 0 -5 -82 8 -107 6 -11 8 -23 5 -27 -3 -3 -1 -6 5 -6 7 0 12 -4 12 -9 0
-18 61 -100 113 -155 112 -116 195 -96 324 74 74 98 96 168 78 250 -10 44 -78
151 -136 211 -76 80 -134 97 -199 58z"/>
</g>
</svg>
