<svg xmlns="http://www.w3.org/2000/svg" xmlns:xlink="http://www.w3.org/1999/xlink" viewBox="0 0 166.51 17.89"><defs><style>.cls-1{fill:#5437a2;}.cls-2{fill:#989898;}.cls-3{fill-rule:evenodd;fill:url(#radial-gradient);}</style><radialGradient id="radial-gradient" cx="14.15" cy="-2.93" r="12.47" gradientUnits="userSpaceOnUse"><stop offset="0" stop-color="#fff"/><stop offset="1" stop-color="#5437a2"/></radialGradient></defs><g id="Layer_2" data-name="Layer 2"><g id="Layer_1-2" data-name="Layer 1"><polygon class="cls-1" points="76.05 3.69 76.05 0.23 63.87 0.23 63.87 17.32 76.05 17.32 76.05 13.86 68.26 13.86 68.26 10.35 75.54 10.35 75.54 6.89 68.26 6.89 68.26 3.69 76.05 3.69"/><path class="cls-1" d="M55.81,3.57A7.42,7.42,0,0,1,58,3.91a9.52,9.52,0,0,1,2.15,1.16l1.36-3.2A6.77,6.77,0,0,0,59,.51,10.49,10.49,0,0,0,55.73,0a9.28,9.28,0,0,0-4.65,1.11,7.27,7.27,0,0,0-3,3.06A9.4,9.4,0,0,0,47,8.73a9.47,9.47,0,0,0,1.08,4.62,7.64,7.64,0,0,0,3,3.09,9.27,9.27,0,0,0,4.65,1.08A11.43,11.43,0,0,0,59,17a6.52,6.52,0,0,0,2.52-1.39l-1.36-3.18A9,9,0,0,1,58,13.61a6.57,6.57,0,0,1-2.19.36,3.77,3.77,0,0,1-3.14-1.33,5.94,5.94,0,0,1-1.11-3.91,5.91,5.91,0,0,1,1.11-3.88A3.92,3.92,0,0,1,55.81,3.57Z"/><path class="cls-1" d="M42.12,10.63A2.67,2.67,0,0,0,41,10.15a5.39,5.39,0,0,0,1.9-1.05,4.77,4.77,0,0,0,1.62-3.74A4.83,4.83,0,0,0,43,1.56,7.14,7.14,0,0,0,38.35.23H30.42V17.32h4.42V10.66h1.64a2.58,2.58,0,0,1,1.08.23,1.42,1.42,0,0,1,.74.73l2.18,5.7h4.79l-2-5.1A3.67,3.67,0,0,0,42.12,10.63ZM37.64,7.31H34.81V3.63h2.83a4,4,0,0,1,2.1.42,1.62,1.62,0,0,1,.63,1.42,1.55,1.55,0,0,1-.63,1.39A3.92,3.92,0,0,1,37.64,7.31Z"/><polygon class="cls-1" points="0 17.32 4.45 17.32 4.45 10.38 11.45 10.38 11.45 6.86 4.45 6.86 4.45 3.74 11.93 3.74 11.93 0.23 0 0.23 0 17.32"/><path class="cls-2" d="M86.51.23H78.35V17.32h4.54V10.63h3.62a6.58,6.58,0,0,0,4.54-1.42,4.78,4.78,0,0,0,1.59-3.77,4.78,4.78,0,0,0-1.59-3.8A6.67,6.67,0,0,0,86.51.23ZM87.82,6.8a3.17,3.17,0,0,1-1.93.49h-3V3.63h3a3.22,3.22,0,0,1,2,.48,1.65,1.65,0,0,1,.59,1.36A1.52,1.52,0,0,1,87.82,6.8Z"/><polygon class="cls-2" points="106.13 6.86 99.21 6.86 99.21 0.23 94.79 0.23 94.79 17.32 99.21 17.32 99.21 10.4 106.13 10.4 106.13 17.32 110.55 17.32 110.55 0.23 106.13 0.23 106.13 6.86"/><path class="cls-2" d="M119.54.23l-8,17.09h4.51l1.53-3.54h7.55l1.52,3.54h4.45l-8-17.09ZM119,10.4,121.36,5l2.32,5.39Z"/><path class="cls-2" d="M143.77,10.63a2.48,2.48,0,0,0-1.06-.48,5.44,5.44,0,0,0,1.91-1.05,4.77,4.77,0,0,0,1.62-3.74,4.76,4.76,0,0,0-1.56-3.8A7,7,0,0,0,140,.23h-8V17.32h4.45V10.66h1.64a2.69,2.69,0,0,1,1.08.23,1.41,1.41,0,0,1,.71.73l2.21,5.7h4.76l-2-5.1A3.38,3.38,0,0,0,143.77,10.63Zm-2.38-3.77a3.85,3.85,0,0,1-2.1.45h-2.83V3.63h2.83a3.89,3.89,0,0,1,2.1.42A1.63,1.63,0,0,1,142,5.47,1.57,1.57,0,0,1,141.39,6.86Z"/><polygon class="cls-2" points="163.02 0.23 157.92 11.92 152.82 0.23 149.27 0.23 149.27 17.32 153.18 17.32 153.18 9.53 156.47 17.32 159.31 17.32 162.57 9.49 162.57 17.32 166.51 17.32 166.51 0.23 163.02 0.23"/><path class="cls-3" d="M15.53,13.16A7.51,7.51,0,0,1,14,9a7.26,7.26,0,0,1,1.54-4C16.58,3.46,18.85.37,21.06.23S25.71,3.41,26.82,5a7.36,7.36,0,0,1,1.55,4.16,7.26,7.26,0,0,1-1.53,4c-1.07,1.53-3.34,4.65-5.55,4.79s-4.65-3.17-5.76-4.73Z"/></g></g></svg>