<svg xmlns="http://www.w3.org/2000/svg" viewBox="0 0 40 40"><g id="Layer_2" data-name="Layer 2"><g id="Capa_1" data-name="Capa 1"><g id="wish_list" data-name="wish list"><path d="M23.12,19.37h-5a.63.63,0,0,0-.62.63.62.62,0,0,0,.62.62h5a.62.62,0,0,0,.63-.62A.63.63,0,0,0,23.12,19.37Z"/><path d="M23.12,14.37h-5a.63.63,0,0,0-.62.63.62.62,0,0,0,.62.62h5a.62.62,0,0,0,.63-.62A.63.63,0,0,0,23.12,14.37Z"/><path d="M14.37,24.37H5.62A.63.63,0,0,0,5,25a.62.62,0,0,0,.62.62h8.75A.62.62,0,0,0,15,25,.63.63,0,0,0,14.37,24.37Z"/><path d="M14.37,19.37H5.62A.63.63,0,0,0,5,20a.62.62,0,0,0,.62.62h8.75A.62.62,0,0,0,15,20,.63.63,0,0,0,14.37,19.37Z"/><path d="M14.37,14.37H5.62A.63.63,0,0,0,5,15a.62.62,0,0,0,.62.62h8.75A.62.62,0,0,0,15,15,.63.63,0,0,0,14.37,14.37Z"/><path d="M19.33,39.06l.05-.31H1.25V1.25H18.46V9.67a.62.62,0,0,0,.62.62H27.5v5.93a1.69,1.69,0,0,1,1.25,0V9.67a.67.67,0,0,0-.18-.45l-9-9a.74.74,0,0,0-.21-.13.6.6,0,0,0-.24,0H.62A.62.62,0,0,0,0,.62V39.37A.63.63,0,0,0,.62,40h18.8A1.77,1.77,0,0,1,19.33,39.06Zm.38-36.93L26.62,9H19.71Z"/><path d="M21.18,40a.63.63,0,0,1-.62-.73l1.27-7.42L16.44,26.6a.64.64,0,0,1-.16-.64.61.61,0,0,1,.5-.43l7.45-1.08,3.33-6.75a.65.65,0,0,1,1.12,0L32,24.45l7.44,1.08A.61.61,0,0,1,40,26a.64.64,0,0,1-.16.64l-5.39,5.25,1.27,7.42a.63.63,0,0,1-.91.66l-6.66-3.5-6.65,3.5A.62.62,0,0,1,21.18,40Zm6.94-4.9a.59.59,0,0,1,.29.07l5.83,3.06-1.11-6.49a.65.65,0,0,1,.18-.55L38,26.58l-6.52-.94A.64.64,0,0,1,31,25.3l-2.92-5.91L25.21,25.3a.64.64,0,0,1-.47.34l-6.52.94,4.72,4.61a.65.65,0,0,1,.18.55L22,38.23l5.83-3.06A.59.59,0,0,1,28.12,35.1Z"/></g></g></g></svg>