<svg xmlns="http://www.w3.org/2000/svg" viewBox="0 0 40 40"><g id="Layer_2" data-name="Layer 2"><g id="Capa_1" data-name="Capa 1"><g id="piggy_bank" data-name="piggy bank"><path d="M25.63,12.5a6.25,6.25,0,1,0-6.25-6.25A6.26,6.26,0,0,0,25.63,12.5Zm0-11.25a5,5,0,1,1-5,5A5,5,0,0,1,25.63,1.25Z"/><path d="M13.61,14.94a.61.61,0,0,0-.47.74.62.62,0,0,0,.75.47,22.76,22.76,0,0,1,9.72,0l.14,0a.63.63,0,0,0,.61-.49.61.61,0,0,0-.47-.74A23.77,23.77,0,0,0,13.61,14.94Z"/><path d="M39.58,13.79a.63.63,0,0,0-.79.38,2.09,2.09,0,0,1-.7.8,5.85,5.85,0,0,0,0-.59,2.5,2.5,0,1,0-2.5,2.5c.27,0,.5,0,.75-.06a4.65,4.65,0,0,1-3.19,2.53,11.94,11.94,0,0,0-4.13-6.44,7.51,7.51,0,0,1-1.34.54c3.1,2.12,4.78,5.61,4.78,10.25,0,4.92-1.79,8.49-5.32,10.6a.62.62,0,0,0-.3.54v3.91h-5V36.82a.64.64,0,0,0-.7-.62,19.76,19.76,0,0,1-4.86,0,.64.64,0,0,0-.49.16.63.63,0,0,0-.2.46v1.93h-5V34.84a.63.63,0,0,0-.31-.54,10.49,10.49,0,0,1-4.9-6.86.61.61,0,0,0-.6-.48H2.41l-1-6.4L4.59,21a.62.62,0,0,0,.7-.5,10.9,10.9,0,0,1,3.26-6.09.63.63,0,0,0,.2-.46V8.45c2.34.12,4.74.92,5,2.53a.66.66,0,0,0,.27.42.65.65,0,0,0,.49.1,20.12,20.12,0,0,1,4.27-.44c.4,0,.78,0,1.16,0A8.07,8.07,0,0,1,19,9.82h-.28a21.22,21.22,0,0,0-4,.35c-.79-2.05-3.81-3-6.66-3a.63.63,0,0,0-.63.63V13.7a12,12,0,0,0-3.31,6L.71,19.2a.62.62,0,0,0-.7.72l1.25,7.76a.62.62,0,0,0,.62.53H4.33a11.63,11.63,0,0,0,5.05,7v4.19A.62.62,0,0,0,10,40h6.25a.63.63,0,0,0,.63-.62V37.51a21.35,21.35,0,0,0,3.75,0v1.87a.62.62,0,0,0,.62.62H27.5a.63.63,0,0,0,.63-.62V35.19c3.68-2.36,5.62-6.32,5.62-11.49a17.35,17.35,0,0,0-.28-3.13,6,6,0,0,0,4.35-4.06A3.54,3.54,0,0,0,40,14.57.62.62,0,0,0,39.58,13.79Zm-5.2.59a1.25,1.25,0,0,1,2.5,0,1.25,1.25,0,1,1-2.5,0Z"/></g></g></g></svg>