<svg xmlns="http://www.w3.org/2000/svg" viewBox="0 0 40 40"><g id="Layer_2" data-name="Layer 2"><g id="Capa_1" data-name="Capa 1"><g id="protected"><path d="M40,8.73a.62.62,0,0,0-.47-.58c-.11,0-11.86-3.16-19.18-8a.68.68,0,0,0-.7,0C12.33,5,.58,8.11.47,8.15A.62.62,0,0,0,0,8.73C0,9-.33,30.58,19.73,39.94a.64.64,0,0,0,.54,0C40.32,30.58,40,9,40,8.73Zm-20,30C2.55,30.37,1.33,12.34,1.25,9.23c2.28-.64,12-3.49,18.75-7.86,6.74,4.37,16.47,7.22,18.75,7.86C38.67,12.34,37.45,30.37,20,38.68Z"/><path d="M14.72,13.55,13.47,17.3a.38.38,0,0,0,0,.1.36.36,0,0,0,0,.1v8.75a.62.62,0,0,0,.62.62H25.94a.62.62,0,0,0,.62-.62V17.5a.36.36,0,0,0,0-.1.38.38,0,0,0,0-.1l-1.25-3.75a.62.62,0,0,0-.59-.43H15.31A.62.62,0,0,0,14.72,13.55ZM25.31,25.62H14.69v-7.5H17.5V20a.62.62,0,0,0,.62.62h3.75A.62.62,0,0,0,22.5,20V18.12h2.82Zm-4.06-7.5v1.25h-2.5V18.12Zm-2.39-1.25.42-2.5h1.44l.42,2.5Zm6.21,0H22.4L22,14.37h2.25ZM18,14.37l-.41,2.5H14.93l.83-2.5Z"/></g></g></g></svg>