<svg xmlns="http://www.w3.org/2000/svg" xmlns:xlink="http://www.w3.org/1999/xlink" viewBox="0 0 43.67 40"><defs><style>.cls-1{fill:url(#linear-gradient);}</style><linearGradient id="linear-gradient" x1="10.62" y1="-3.05" x2="33.05" y2="35.8" gradientUnits="userSpaceOnUse"><stop offset="0" stop-color="#8924a2"/><stop offset="0.75" stop-color="#5538a2"/></linearGradient></defs><g id="Layer_2" data-name="Layer 2"><g id="Layer_1-2" data-name="Layer 1"><g id="icons"><path id="message" class="cls-1" d="M36.39,0H7.28A7.29,7.29,0,0,0,0,7.28V25.47a7.3,7.3,0,0,0,7.28,7.28v5.46a1.82,1.82,0,0,0,3.09,1.27l6.73-6.73H36.39a7.31,7.31,0,0,0,7.28-7.28V7.28A7.3,7.3,0,0,0,36.39,0ZM25.47,21.83H14.56A1.71,1.71,0,0,1,12.74,20a1.72,1.72,0,0,1,1.82-1.82H25.47A1.72,1.72,0,0,1,27.29,20,1.72,1.72,0,0,1,25.47,21.83Zm3.64-7.27H14.56a1.72,1.72,0,0,1-1.82-1.82,1.71,1.71,0,0,1,1.82-1.82H29.11a1.72,1.72,0,0,1,1.82,1.82A1.72,1.72,0,0,1,29.11,14.56Z"/></g></g></g></svg>