<svg xmlns="http://www.w3.org/2000/svg" xmlns:xlink="http://www.w3.org/1999/xlink" viewBox="0 0 41.88 40"><defs><style>.cls-1{fill:url(#linear-gradient);}</style><linearGradient id="linear-gradient" x1="11.89" y1="4.94" x2="32.41" y2="40.48" gradientUnits="userSpaceOnUse"><stop offset="0" stop-color="#8924a2"/><stop offset="0.75" stop-color="#5538a2"/></linearGradient></defs><g id="Layer_2" data-name="Layer 2"><g id="Layer_1-2" data-name="Layer 1"><path class="cls-1" d="M22.55,1l5.08,10.29a1.77,1.77,0,0,0,1.35,1l11.36,1.66a1.78,1.78,0,0,1,1,3.05l-8.22,8a1.79,1.79,0,0,0-.52,1.58L34.54,37.9a1.8,1.8,0,0,1-2.61,1.89L21.77,34.45a1.77,1.77,0,0,0-1.67,0L9.94,39.79a1.79,1.79,0,0,1-2.6-1.89L9.28,26.58A1.78,1.78,0,0,0,8.77,25L.54,17a1.79,1.79,0,0,1,1-3.05L12.9,12.27a1.78,1.78,0,0,0,1.35-1L19.33,1A1.8,1.8,0,0,1,22.55,1Z"/></g></g></svg>